<svg width="602" height="507" viewBox="0 0 602 507" fill="none" xmlns="http://www.w3.org/2000/svg">
<path d="M291.606 490.795C291.772 490.711 291.953 490.684 292.148 490.711C292.37 490.711 292.579 490.767 292.774 490.878C292.996 490.962 293.191 491.087 293.358 491.254C293.553 491.421 293.678 491.629 293.733 491.88C293.845 492.325 293.775 492.714 293.525 493.048C293.302 493.354 293.038 493.576 292.732 493.715C292.259 493.938 291.689 494.147 291.021 494.341C290.354 494.508 289.645 494.647 288.894 494.759C288.143 494.87 287.378 494.953 286.599 495.009C285.82 495.065 285.097 495.092 284.429 495.092C283.011 495.092 281.648 494.967 280.34 494.717C279.033 494.467 278.032 494.188 277.336 493.882C276.863 493.66 276.418 493.382 276.001 493.048C275.584 492.686 275.306 492.2 275.167 491.588C275.055 491.031 274.972 490.197 274.916 489.084C274.861 487.944 274.819 486.678 274.791 485.287C274.791 483.869 274.791 482.395 274.791 480.865C274.791 479.335 274.805 477.888 274.833 476.525C274.888 475.162 274.944 473.953 275 472.896C275.055 471.839 275.111 471.087 275.167 470.642C275.278 470.086 275.528 469.572 275.918 469.099C276.307 468.626 276.78 468.389 277.336 468.389H291.522C291.828 468.389 292.134 468.528 292.44 468.807C292.774 469.085 292.941 469.446 292.941 469.891C292.941 470.281 292.802 470.642 292.523 470.976C292.245 471.282 291.939 471.435 291.606 471.435H279.005C278.699 471.435 278.518 471.519 278.463 471.686C278.435 471.852 278.407 472.005 278.379 472.144C278.351 472.506 278.31 473.118 278.254 473.98C278.226 474.815 278.185 475.802 278.129 476.943C278.101 478.055 278.073 479.251 278.045 480.531C278.018 481.783 278.004 483.02 278.004 484.244C278.032 485.44 278.059 486.567 278.087 487.624C278.143 488.653 278.212 489.488 278.296 490.127C278.351 490.517 278.49 490.781 278.713 490.92C279.353 491.226 280.187 491.476 281.216 491.671C282.246 491.838 283.386 491.921 284.638 491.921C285.305 491.921 285.987 491.894 286.682 491.838C287.405 491.754 288.087 491.657 288.727 491.546C289.366 491.435 289.937 491.309 290.437 491.17C290.966 491.031 291.355 490.906 291.606 490.795ZM301.744 481.491C301.744 483.104 301.73 484.703 301.703 486.289C301.675 487.846 301.633 489.307 301.577 490.67C301.55 492.033 301.508 493.243 301.452 494.3C301.397 495.357 301.341 496.177 301.285 496.761C301.23 497.179 301.007 497.512 300.618 497.763C300.228 498.041 299.825 498.152 299.408 498.096C298.963 498.069 298.587 497.902 298.281 497.596C298.003 497.29 297.878 496.914 297.906 496.469C297.989 495.412 298.059 494.119 298.114 492.589C298.198 491.031 298.253 489.362 298.281 487.582C298.309 485.774 298.323 483.924 298.323 482.033C298.351 480.114 298.337 478.264 298.281 476.484C298.253 474.676 298.212 472.993 298.156 471.435C298.101 469.85 298.017 468.515 297.906 467.43C297.85 466.985 297.961 466.623 298.24 466.345C298.546 466.039 298.921 465.858 299.366 465.803C299.811 465.747 300.228 465.844 300.618 466.095C301.007 466.317 301.23 466.665 301.285 467.138C301.424 468.25 301.536 469.822 301.619 471.852C301.703 473.855 301.744 476.039 301.744 478.403H305.708C306.014 478.403 306.32 478.556 306.626 478.862C306.96 479.14 307.127 479.502 307.127 479.947C307.127 480.336 306.988 480.698 306.709 481.032C306.431 481.338 306.111 481.491 305.75 481.491H301.744Z" fill="#2BAF66"/>
<path d="M245.134 469.391C245.106 469.836 245.064 470.559 245.009 471.56C244.953 472.562 244.897 473.716 244.842 475.023C244.814 476.303 244.772 477.68 244.717 479.154C244.689 480.6 244.675 482.019 244.675 483.41C244.675 484.773 244.689 486.038 244.717 487.207C244.772 488.347 244.842 489.265 244.925 489.96C244.981 490.433 245.12 490.739 245.342 490.878C245.982 491.184 246.886 491.435 248.054 491.629C249.223 491.796 250.433 491.88 251.684 491.88C252.352 491.88 253.02 491.852 253.687 491.796C254.355 491.713 254.981 491.615 255.565 491.504C256.149 491.393 256.677 491.268 257.15 491.129C257.623 490.99 257.998 490.864 258.277 490.753C258.583 490.614 258.972 490.642 259.445 490.837C259.918 491.003 260.224 491.337 260.363 491.838C260.474 492.255 260.405 492.631 260.154 492.964C259.932 493.27 259.667 493.493 259.361 493.632C258.889 493.855 258.332 494.049 257.693 494.216C257.081 494.383 256.413 494.522 255.69 494.633C254.994 494.745 254.285 494.828 253.562 494.884C252.839 494.939 252.143 494.967 251.476 494.967C250.78 494.967 250.057 494.939 249.306 494.884C248.583 494.8 247.874 494.717 247.178 494.633C246.511 494.522 245.885 494.397 245.301 494.258C244.744 494.119 244.299 493.966 243.966 493.799C243.493 493.576 243.048 493.298 242.63 492.964C242.213 492.603 241.935 492.116 241.796 491.504C241.685 490.948 241.601 490.086 241.546 488.917C241.49 487.721 241.448 486.386 241.42 484.912C241.42 483.41 241.42 481.838 241.42 480.197C241.448 478.528 241.476 476.957 241.504 475.482C241.559 474.008 241.615 472.701 241.671 471.56C241.726 470.42 241.796 469.599 241.879 469.099C241.935 468.709 242.144 468.403 242.505 468.181C242.867 467.93 243.298 467.847 243.799 467.93C244.355 467.986 244.717 468.181 244.883 468.515C245.078 468.848 245.162 469.14 245.134 469.391ZM268.499 467.138C268.638 468.056 268.735 469.335 268.791 470.976C268.874 472.59 268.93 474.37 268.958 476.317C268.986 478.264 268.986 480.281 268.958 482.367C268.958 484.453 268.93 486.442 268.874 488.333C268.847 490.197 268.791 491.88 268.708 493.382C268.652 494.884 268.582 496.01 268.499 496.761C268.443 497.179 268.221 497.512 267.831 497.763C267.442 498.041 267.039 498.152 266.621 498.096C266.176 498.069 265.801 497.902 265.495 497.596C265.217 497.29 265.091 496.914 265.119 496.469C265.203 495.412 265.272 494.119 265.328 492.589C265.411 491.031 265.467 489.362 265.495 487.582C265.523 485.774 265.537 483.924 265.537 482.033C265.564 480.114 265.55 478.264 265.495 476.484C265.467 474.676 265.425 472.993 265.37 471.435C265.314 469.85 265.231 468.515 265.119 467.43C265.064 466.985 265.175 466.623 265.453 466.345C265.759 466.039 266.135 465.858 266.58 465.803C267.025 465.747 267.442 465.844 267.831 466.095C268.221 466.317 268.443 466.665 268.499 467.138Z" fill="#2BAF66"/>
<path d="M208.425 480.865C208.342 480.447 208.272 479.975 208.217 479.446C208.189 478.918 208.175 478.375 208.175 477.819C208.203 477.235 208.244 476.692 208.3 476.192C208.356 475.663 208.425 475.218 208.509 474.857C208.62 474.551 208.801 474.231 209.051 473.897C209.329 473.535 209.691 473.354 210.136 473.354H222.236C222.291 473.048 222.347 472.59 222.402 471.978C222.458 471.338 222.444 470.698 222.361 470.058C222.333 469.919 222.277 469.766 222.194 469.599C222.138 469.432 221.957 469.349 221.651 469.349H210.261C209.955 469.349 209.649 469.196 209.343 468.89C209.065 468.556 208.926 468.195 208.926 467.805C208.926 467.416 209.065 467.068 209.343 466.762C209.621 466.456 209.941 466.303 210.303 466.303H223.279C223.835 466.303 224.322 466.54 224.739 467.013C225.156 467.485 225.393 468 225.448 468.556C225.504 469.057 225.546 469.613 225.573 470.225C225.601 470.809 225.601 471.38 225.573 471.936C225.573 472.492 225.546 473.021 225.49 473.521C225.462 474.022 225.407 474.439 225.323 474.773C225.212 475.162 224.975 475.538 224.614 475.9C224.252 476.233 223.752 476.4 223.112 476.4H211.554C211.471 476.706 211.429 477.179 211.429 477.819C211.429 478.431 211.471 479.001 211.554 479.53C211.554 479.641 211.582 479.766 211.638 479.905C211.693 480.016 211.805 480.128 211.972 480.239C212.611 480.573 213.515 480.823 214.684 480.99C215.852 481.129 217.062 481.198 218.314 481.198C218.981 481.198 219.649 481.171 220.316 481.115C220.984 481.032 221.61 480.934 222.194 480.823C222.778 480.712 223.306 480.587 223.779 480.447C224.252 480.308 224.614 480.183 224.864 480.072C225.031 479.988 225.212 479.961 225.407 479.988C225.629 479.988 225.838 480.044 226.032 480.155C226.255 480.239 226.45 480.364 226.617 480.531C226.811 480.698 226.936 480.906 226.992 481.157C227.103 481.602 227.034 481.991 226.783 482.325C226.561 482.631 226.297 482.853 225.991 482.993C225.518 483.215 224.962 483.424 224.322 483.618C223.71 483.785 223.042 483.924 222.319 484.036C221.624 484.147 220.914 484.23 220.191 484.286C219.468 484.342 218.773 484.369 218.105 484.369C216.603 484.369 215.17 484.258 213.807 484.036C212.472 483.813 211.401 483.521 210.595 483.159C210.122 482.937 209.677 482.659 209.26 482.325C208.842 481.963 208.564 481.477 208.425 480.865ZM236.38 467.138C236.519 468.306 236.616 469.599 236.672 471.018C236.728 472.437 236.741 473.883 236.714 475.357C236.714 476.831 236.686 478.278 236.63 479.696C236.575 481.115 236.491 482.395 236.38 483.535C236.352 483.952 236.129 484.3 235.712 484.578C235.323 484.828 234.92 484.926 234.502 484.87C234.057 484.842 233.682 484.675 233.376 484.369C233.098 484.063 232.972 483.688 233 483.243C233.223 480.656 233.32 478.027 233.292 475.357C233.292 472.687 233.195 470.044 233 467.43C232.972 466.985 233.098 466.623 233.376 466.345C233.654 466.039 234.016 465.858 234.461 465.803C234.906 465.747 235.323 465.844 235.712 466.095C236.102 466.317 236.324 466.665 236.38 467.138ZM214.767 487.749C214.711 488.138 214.642 488.514 214.558 488.876C214.503 489.209 214.447 489.557 214.392 489.919H230.08C230.469 489.919 230.803 490.072 231.081 490.378C231.359 490.656 231.498 491.017 231.498 491.462C231.498 491.852 231.373 492.213 231.123 492.547C230.9 492.853 230.566 493.006 230.121 493.006H214.266C214.266 493.702 214.35 494.453 214.517 495.259C214.545 495.343 214.572 495.426 214.6 495.51C214.656 495.565 214.753 495.621 214.892 495.676C215.254 495.843 215.755 495.982 216.394 496.094C217.034 496.205 217.757 496.288 218.564 496.344C219.398 496.428 220.275 496.483 221.193 496.511C222.138 496.567 223.084 496.594 224.03 496.594C226.088 496.594 227.896 496.511 229.454 496.344C231.039 496.177 232.18 495.941 232.875 495.635C232.986 495.579 233.07 495.524 233.125 495.468C233.181 495.384 233.223 495.273 233.251 495.134C233.334 494.55 233.39 493.994 233.417 493.465C233.473 492.909 233.487 492.366 233.459 491.838C233.431 491.282 233.376 490.711 233.292 490.127C233.209 489.543 233.098 488.903 232.959 488.208C232.875 487.763 232.972 487.36 233.251 486.998C233.529 486.636 233.904 486.428 234.377 486.372C234.822 486.317 235.212 486.414 235.545 486.664C235.907 486.915 236.13 487.234 236.213 487.624C236.519 489.042 236.7 490.503 236.755 492.005C236.839 493.479 236.728 494.898 236.422 496.261C236.282 496.9 236.018 497.387 235.629 497.721C235.239 498.055 234.794 498.333 234.294 498.555C233.793 498.778 233.153 498.959 232.374 499.098C231.596 499.265 230.733 499.39 229.788 499.473C228.87 499.585 227.896 499.654 226.867 499.682C225.838 499.738 224.822 499.765 223.821 499.765C222.736 499.765 221.679 499.738 220.65 499.682C219.621 499.626 218.647 499.543 217.729 499.432C216.839 499.348 216.033 499.223 215.31 499.056C214.586 498.917 213.988 498.75 213.515 498.555C213.043 498.333 212.611 498.083 212.222 497.804C211.833 497.526 211.527 497.026 211.304 496.302C211.165 495.829 211.068 495.245 211.012 494.55C210.956 493.855 210.929 493.104 210.929 492.297C210.956 491.462 211.012 490.614 211.095 489.752C211.179 488.862 211.304 488.013 211.471 487.207C211.554 486.817 211.763 486.497 212.097 486.247C212.458 485.997 212.848 485.899 213.265 485.955C213.738 486.011 214.127 486.219 214.433 486.581C214.739 486.915 214.851 487.304 214.767 487.749Z" fill="#2BAF66"/>
<path d="M179.373 483.743C179.401 483.882 179.512 483.994 179.707 484.077C180.374 484.355 181.445 484.592 182.919 484.786C184.421 484.981 186.354 485.079 188.719 485.079C190.471 485.079 192.224 484.953 193.976 484.703C195.756 484.453 197.356 484.091 198.774 483.618C199.08 483.479 199.428 483.507 199.817 483.702C200.234 483.896 200.513 484.202 200.652 484.62C200.791 485.037 200.777 485.426 200.61 485.788C200.471 486.122 200.262 486.358 199.984 486.497C199.233 486.831 198.385 487.109 197.439 487.332C196.493 487.526 195.506 487.693 194.477 487.832C193.447 487.944 192.404 488.041 191.347 488.124C190.318 488.18 189.331 488.208 188.385 488.208C187.439 488.208 186.48 488.194 185.506 488.166C184.533 488.11 183.601 488.041 182.711 487.957C181.821 487.846 181 487.721 180.249 487.582C179.498 487.415 178.844 487.22 178.288 486.998C177.787 486.775 177.328 486.497 176.911 486.163C176.522 485.802 176.257 485.315 176.118 484.703C176.007 484.202 175.924 483.563 175.868 482.784C175.812 481.977 175.771 481.115 175.743 480.197C175.715 479.279 175.701 478.333 175.701 477.36C175.729 476.358 175.757 475.413 175.785 474.522C175.812 473.605 175.854 472.77 175.91 472.019C175.965 471.268 176.021 470.67 176.077 470.225C176.188 469.669 176.438 469.154 176.828 468.681C177.217 468.208 177.676 467.972 178.204 467.972H198.273C198.579 467.972 198.885 468.111 199.191 468.389C199.525 468.667 199.692 469.029 199.692 469.474C199.692 469.863 199.553 470.225 199.275 470.559C198.997 470.865 198.691 471.018 198.357 471.018H179.915C179.609 471.018 179.428 471.101 179.373 471.268C179.317 471.435 179.275 471.588 179.248 471.727C179.192 472.283 179.136 473.076 179.081 474.105C179.025 475.134 178.983 476.233 178.956 477.401C178.956 478.57 178.983 479.724 179.039 480.864C179.095 482.005 179.206 482.965 179.373 483.743ZM173.657 496.01C173.212 495.954 172.85 495.76 172.572 495.426C172.294 495.064 172.182 494.675 172.238 494.258C172.294 493.785 172.488 493.423 172.822 493.173C173.184 492.923 173.573 492.825 173.99 492.881C175.103 492.992 176.41 493.089 177.912 493.173C179.442 493.229 181.069 493.284 182.794 493.34C184.519 493.368 186.299 493.395 188.135 493.423C189.97 493.423 191.751 493.409 193.475 493.381C195.2 493.326 196.813 493.256 198.315 493.173C199.845 493.089 201.152 492.992 202.237 492.881C202.71 492.825 203.113 492.936 203.447 493.215C203.809 493.493 204.003 493.84 204.031 494.258C204.087 494.675 203.962 495.064 203.656 495.426C203.35 495.76 203.002 495.954 202.613 496.01C201.806 496.121 200.652 496.205 199.15 496.26C197.675 496.344 196.02 496.399 194.185 496.427C192.377 496.483 190.457 496.511 188.427 496.511C186.424 496.539 184.477 496.539 182.585 496.511C180.722 496.483 178.997 496.427 177.412 496.344C175.854 496.26 174.602 496.149 173.657 496.01Z" fill="#2BAF66"/>
<path d="M152.612 471.352C152.612 472.576 152.264 473.591 151.569 474.398C150.901 475.204 149.983 475.858 148.815 476.359C147.675 476.831 146.339 477.179 144.81 477.402C143.28 477.596 141.666 477.694 139.97 477.694C138.301 477.694 136.701 477.596 135.172 477.402C133.642 477.179 132.293 476.831 131.124 476.359C129.984 475.858 129.066 475.204 128.371 474.398C127.675 473.591 127.328 472.576 127.328 471.352C127.328 470.128 127.661 469.113 128.329 468.306C129.024 467.471 129.956 466.818 131.124 466.345C132.293 465.844 133.642 465.497 135.172 465.302C136.701 465.107 138.301 465.01 139.97 465.01C141.666 465.01 143.28 465.107 144.81 465.302C146.339 465.497 147.675 465.844 148.815 466.345C149.983 466.818 150.901 467.458 151.569 468.264C152.264 469.071 152.612 470.1 152.612 471.352ZM149.274 471.393C149.274 470.698 149.038 470.128 148.565 469.683C148.092 469.238 147.424 468.89 146.562 468.64C145.728 468.389 144.74 468.222 143.6 468.139C142.487 468.028 141.277 467.972 139.97 467.972C138.635 467.972 137.397 468.028 136.256 468.139C135.116 468.222 134.128 468.389 133.294 468.64C132.46 468.89 131.806 469.238 131.333 469.683C130.888 470.128 130.665 470.698 130.665 471.393C130.665 472.061 130.902 472.617 131.375 473.062C131.848 473.48 132.501 473.813 133.336 474.064C134.17 474.314 135.158 474.495 136.298 474.606C137.438 474.69 138.662 474.731 139.97 474.731C141.277 474.731 142.487 474.69 143.6 474.606C144.74 474.495 145.728 474.314 146.562 474.064C147.396 473.813 148.05 473.48 148.523 473.062C149.024 472.617 149.274 472.061 149.274 471.393ZM125.659 482.283C125.214 482.228 124.852 482.033 124.574 481.699C124.296 481.338 124.184 480.948 124.24 480.531C124.296 480.058 124.49 479.696 124.824 479.446C125.186 479.196 125.575 479.098 125.992 479.154C127.105 479.265 128.412 479.363 129.914 479.446C131.444 479.502 133.071 479.557 134.796 479.613C136.521 479.641 138.301 479.669 140.137 479.696C141.972 479.696 143.753 479.683 145.477 479.655C147.202 479.599 148.815 479.543 150.317 479.488C151.847 479.404 153.154 479.293 154.239 479.154C154.712 479.098 155.115 479.21 155.449 479.488C155.811 479.766 156.005 480.114 156.033 480.531C156.089 480.948 155.964 481.338 155.658 481.699C155.352 482.033 155.004 482.228 154.615 482.283C153.808 482.395 152.654 482.492 151.152 482.575C149.677 482.631 148.022 482.687 146.187 482.742C144.378 482.77 142.459 482.798 140.429 482.826C138.426 482.826 136.479 482.812 134.587 482.784C132.724 482.756 130.999 482.7 129.414 482.617C127.856 482.534 126.604 482.422 125.659 482.283ZM130.498 493.507C130.471 493.729 130.457 494.021 130.457 494.383C130.457 494.745 130.498 495.12 130.582 495.51C130.61 495.649 130.721 495.76 130.916 495.843C131.25 495.982 131.806 496.108 132.585 496.219C133.391 496.33 134.281 496.414 135.255 496.469C136.256 496.553 137.286 496.608 138.343 496.636C139.399 496.692 140.373 496.72 141.263 496.72C143.016 496.72 144.81 496.594 146.645 496.344C148.509 496.094 150.15 495.732 151.569 495.259C151.875 495.12 152.222 495.148 152.612 495.343C153.029 495.51 153.307 495.802 153.446 496.219C153.585 496.636 153.572 497.012 153.405 497.345C153.266 497.679 153.057 497.916 152.779 498.055C152.028 498.389 151.166 498.653 150.192 498.847C149.218 499.07 148.203 499.237 147.146 499.348C146.089 499.487 145.018 499.585 143.933 499.64C142.876 499.724 141.875 499.765 140.929 499.765C139.984 499.765 138.954 499.751 137.842 499.724C136.757 499.696 135.686 499.64 134.629 499.557C133.572 499.473 132.599 499.362 131.708 499.223C130.818 499.084 130.095 498.903 129.539 498.681C129.038 498.458 128.579 498.166 128.162 497.804C127.773 497.471 127.508 496.998 127.369 496.386C127.175 495.523 127.105 494.675 127.161 493.841C127.244 492.978 127.328 492.353 127.411 491.963C127.494 491.657 127.675 491.323 127.953 490.962C128.232 490.6 128.593 490.419 129.038 490.419H149.441C149.497 490.28 149.538 490.058 149.566 489.752C149.594 489.418 149.594 489.098 149.566 488.792C149.566 488.653 149.51 488.514 149.399 488.375C149.288 488.208 149.079 488.125 148.773 488.125H129.205C128.899 488.125 128.593 487.972 128.287 487.666C127.981 487.332 127.828 486.956 127.828 486.539C127.828 486.15 127.967 485.802 128.245 485.496C128.524 485.19 128.843 485.037 129.205 485.037H150.442C150.999 485.037 151.471 485.19 151.861 485.496C152.278 485.802 152.542 486.233 152.654 486.789C152.709 487.068 152.751 487.443 152.779 487.916C152.807 488.361 152.821 488.834 152.821 489.335C152.821 489.807 152.793 490.28 152.737 490.753C152.709 491.198 152.654 491.574 152.57 491.88C152.459 492.269 152.222 492.645 151.861 493.006C151.499 493.34 150.999 493.507 150.359 493.507H130.498Z" fill="#2BAF66"/>
<path d="M102.03 477.235C101.919 477.457 101.696 477.68 101.363 477.902C101.029 478.125 100.612 478.139 100.111 477.944C99.499 477.749 99.1513 477.429 99.0679 476.984C99.0123 476.511 99.054 476.136 99.1931 475.858C99.7494 474.801 100.208 473.785 100.57 472.812C100.932 471.838 101.14 470.781 101.196 469.641C101.196 469.502 101.168 469.349 101.112 469.182C101.057 469.015 100.876 468.932 100.57 468.932H93.8107C93.477 468.932 93.171 468.779 92.8928 468.473C92.6147 468.139 92.4756 467.777 92.4756 467.388C92.4756 466.943 92.6286 466.581 92.9345 466.303C93.2683 466.025 93.5882 465.886 93.8942 465.886H102.114C102.67 465.886 103.185 466.039 103.657 466.345C104.13 466.651 104.381 467.137 104.408 467.805C104.492 469.53 104.297 471.24 103.824 472.937C103.351 474.634 102.753 476.066 102.03 477.235ZM117.51 476.817C117.426 477.123 117.218 477.415 116.884 477.693C116.55 477.944 116.133 478.027 115.632 477.944C115.104 477.86 114.728 477.638 114.506 477.276C114.311 476.915 114.241 476.581 114.297 476.275C114.603 474.717 114.798 473.452 114.881 472.478C114.965 471.477 114.951 470.531 114.839 469.641C114.812 469.502 114.77 469.349 114.714 469.182C114.686 469.015 114.519 468.932 114.213 468.932H107.037C106.703 468.932 106.397 468.779 106.119 468.473C105.841 468.139 105.702 467.777 105.702 467.388C105.702 466.943 105.855 466.581 106.161 466.303C106.495 466.025 106.815 465.886 107.121 465.886H115.799C116.327 465.886 116.814 466.039 117.259 466.345C117.704 466.651 117.969 467.124 118.052 467.763C118.135 468.57 118.177 469.404 118.177 470.267C118.177 471.129 118.149 471.963 118.094 472.77C118.038 473.577 117.955 474.328 117.843 475.023C117.732 475.719 117.621 476.317 117.51 476.817ZM91.4325 481.908C90.9875 481.852 90.6259 481.657 90.3477 481.323C90.0695 480.962 89.9583 480.572 90.0139 480.155C90.0695 479.682 90.2643 479.335 90.598 479.112C90.9596 478.862 91.3491 478.764 91.7663 478.82C92.8789 478.931 94.1863 479.029 95.6883 479.112C97.2182 479.168 98.8454 479.223 100.57 479.279C102.295 479.307 104.075 479.335 105.911 479.362C107.746 479.362 109.527 479.348 111.251 479.321C112.976 479.265 114.589 479.209 116.091 479.154C117.621 479.07 118.928 478.959 120.013 478.82C120.458 478.764 120.861 478.862 121.223 479.112C121.585 479.362 121.779 479.71 121.807 480.155C121.863 480.572 121.738 480.962 121.432 481.323C121.126 481.657 120.778 481.852 120.389 481.908C119.832 481.991 119.109 482.061 118.219 482.116C117.329 482.172 116.314 482.227 115.173 482.283C114.061 482.311 112.864 482.353 111.585 482.408C110.305 482.436 108.984 482.45 107.621 482.45V486.497H116.633C117.19 486.497 117.677 486.734 118.094 487.206C118.511 487.679 118.747 488.208 118.803 488.792C118.887 489.32 118.942 489.918 118.97 490.586C119.026 491.254 119.053 491.935 119.053 492.63C119.081 493.298 119.067 493.952 119.012 494.591C118.984 495.231 118.914 495.788 118.803 496.26C118.664 496.845 118.4 497.331 118.01 497.721C117.621 498.11 117.148 498.388 116.592 498.555C115.09 499.028 113.379 499.334 111.46 499.473C109.568 499.64 107.677 499.737 105.785 499.765C104.84 499.765 103.852 499.737 102.823 499.682C101.822 499.654 100.848 499.584 99.9024 499.473C98.9566 499.39 98.0804 499.264 97.2738 499.098C96.4671 498.959 95.7856 498.778 95.2293 498.555C94.7287 498.333 94.2697 498.041 93.8525 497.679C93.463 497.345 93.1988 496.872 93.0597 496.26C92.9485 495.788 92.865 495.231 92.8094 494.591C92.7816 493.952 92.7677 493.298 92.7677 492.63C92.7955 491.935 92.8233 491.254 92.8511 490.586C92.9067 489.918 92.9763 489.32 93.0597 488.792C93.1153 488.208 93.3518 487.679 93.769 487.206C94.1862 486.734 94.673 486.497 95.2293 486.497H104.2V482.45C102.893 482.45 101.599 482.436 100.32 482.408C99.0679 482.38 97.8857 482.353 96.7731 482.325C95.6605 482.269 94.6452 482.214 93.7273 482.158C92.8372 482.074 92.0723 481.991 91.4325 481.908ZM96.9817 489.543C96.7036 489.543 96.5089 489.626 96.3976 489.793C96.3141 489.96 96.2585 490.113 96.2307 490.252C96.1473 491.059 96.0916 491.893 96.0638 492.756C96.036 493.618 96.1055 494.452 96.2724 495.259C96.3002 495.398 96.4115 495.509 96.6062 495.593C96.94 495.732 97.4546 495.857 98.15 495.968C98.8732 496.107 99.6659 496.219 100.528 496.302C101.418 496.386 102.35 496.455 103.324 496.511C104.325 496.566 105.257 496.594 106.119 496.594C107.009 496.594 107.885 496.58 108.748 496.552C109.638 496.525 110.472 496.469 111.251 496.386C112.058 496.33 112.795 496.233 113.462 496.094C114.158 495.982 114.756 495.829 115.257 495.635C115.368 495.579 115.437 495.523 115.465 495.468C115.521 495.412 115.563 495.301 115.59 495.134C115.729 494.327 115.799 493.507 115.799 492.672C115.799 491.838 115.743 491.031 115.632 490.252C115.604 490.113 115.535 489.96 115.423 489.793C115.34 489.626 115.145 489.543 114.839 489.543H96.9817Z" fill="#2BAF66"/>
<path d="M291.606 447.402C291.772 447.319 291.953 447.291 292.148 447.319C292.37 447.319 292.579 447.374 292.774 447.486C292.996 447.569 293.191 447.694 293.358 447.861C293.553 448.028 293.678 448.237 293.733 448.487C293.845 448.932 293.775 449.322 293.525 449.655C293.302 449.961 293.038 450.184 292.732 450.323C292.259 450.545 291.689 450.754 291.021 450.949C290.354 451.116 289.645 451.255 288.894 451.366C288.143 451.477 287.378 451.561 286.599 451.616C285.82 451.672 285.097 451.7 284.429 451.7C283.011 451.7 281.648 451.575 280.34 451.324C279.033 451.074 278.032 450.796 277.336 450.49C276.863 450.267 276.418 449.989 276.001 449.655C275.584 449.294 275.306 448.807 275.167 448.195C275.055 447.639 274.972 446.804 274.916 445.692C274.861 444.551 274.819 443.286 274.791 441.895C274.791 440.476 274.791 439.002 274.791 437.472C274.791 435.942 274.805 434.496 274.833 433.133C274.888 431.77 274.944 430.56 275 429.503C275.055 428.446 275.111 427.695 275.167 427.25C275.278 426.694 275.528 426.179 275.918 425.706C276.307 425.233 276.78 424.997 277.336 424.997H291.522C291.828 424.997 292.134 425.136 292.44 425.414C292.774 425.692 292.941 426.054 292.941 426.499C292.941 426.888 292.802 427.25 292.523 427.584C292.245 427.89 291.939 428.043 291.606 428.043H279.005C278.699 428.043 278.518 428.126 278.463 428.293C278.435 428.46 278.407 428.613 278.379 428.752C278.351 429.114 278.31 429.725 278.254 430.588C278.226 431.422 278.185 432.41 278.129 433.55C278.101 434.663 278.073 435.859 278.045 437.138C278.018 438.39 278.004 439.628 278.004 440.852C278.032 442.048 278.059 443.174 278.087 444.231C278.143 445.26 278.212 446.095 278.296 446.735C278.351 447.124 278.49 447.388 278.713 447.527C279.353 447.833 280.187 448.084 281.216 448.278C282.246 448.445 283.386 448.529 284.638 448.529C285.305 448.529 285.987 448.501 286.682 448.445C287.405 448.362 288.087 448.265 288.727 448.153C289.366 448.042 289.937 447.917 290.437 447.778C290.966 447.639 291.355 447.514 291.606 447.402ZM301.744 438.098C301.744 439.711 301.73 441.311 301.703 442.896C301.675 444.454 301.633 445.914 301.577 447.277C301.55 448.64 301.508 449.85 301.452 450.907C301.397 451.964 301.341 452.785 301.285 453.369C301.23 453.786 301.007 454.12 300.618 454.37C300.228 454.648 299.825 454.76 299.408 454.704C298.963 454.676 298.587 454.509 298.281 454.203C298.003 453.897 297.878 453.522 297.906 453.077C297.989 452.02 298.059 450.726 298.114 449.196C298.198 447.639 298.253 445.97 298.281 444.19C298.309 442.382 298.323 440.532 298.323 438.64C298.351 436.721 298.337 434.871 298.281 433.091C298.253 431.283 298.212 429.6 298.156 428.043C298.101 426.457 298.017 425.122 297.906 424.037C297.85 423.592 297.961 423.231 298.24 422.952C298.546 422.646 298.921 422.466 299.366 422.41C299.811 422.354 300.228 422.452 300.618 422.702C301.007 422.925 301.23 423.272 301.285 423.745C301.424 424.858 301.536 426.429 301.619 428.46C301.703 430.463 301.744 432.646 301.744 435.01H305.708C306.014 435.01 306.32 435.163 306.626 435.469C306.96 435.748 307.127 436.109 307.127 436.554C307.127 436.944 306.988 437.305 306.709 437.639C306.431 437.945 306.111 438.098 305.75 438.098H301.744Z" fill="#2BAF66"/>
<path d="M245.134 425.998C245.106 426.443 245.064 427.166 245.009 428.168C244.953 429.169 244.897 430.323 244.842 431.631C244.814 432.91 244.772 434.287 244.717 435.761C244.689 437.208 244.675 438.626 244.675 440.017C244.675 441.38 244.689 442.646 244.717 443.814C244.772 444.955 244.842 445.872 244.925 446.568C244.981 447.041 245.12 447.347 245.342 447.486C245.982 447.792 246.886 448.042 248.054 448.237C249.223 448.404 250.433 448.487 251.684 448.487C252.352 448.487 253.02 448.459 253.687 448.404C254.355 448.32 254.981 448.223 255.565 448.112C256.149 448 256.677 447.875 257.15 447.736C257.623 447.597 257.998 447.472 258.277 447.361C258.583 447.221 258.972 447.249 259.445 447.444C259.918 447.611 260.224 447.945 260.363 448.445C260.474 448.863 260.405 449.238 260.154 449.572C259.932 449.878 259.667 450.1 259.361 450.239C258.889 450.462 258.332 450.657 257.693 450.824C257.081 450.99 256.413 451.13 255.69 451.241C254.994 451.352 254.285 451.436 253.562 451.491C252.839 451.547 252.143 451.575 251.476 451.575C250.78 451.575 250.057 451.547 249.306 451.491C248.583 451.408 247.874 451.324 247.178 451.241C246.511 451.13 245.885 451.004 245.301 450.865C244.744 450.726 244.299 450.573 243.966 450.406C243.493 450.184 243.048 449.906 242.63 449.572C242.213 449.21 241.935 448.724 241.796 448.112C241.685 447.555 241.601 446.693 241.546 445.525C241.49 444.329 241.448 442.994 241.42 441.519C241.42 440.017 241.42 438.446 241.42 436.805C241.448 435.136 241.476 433.564 241.504 432.09C241.559 430.616 241.615 429.308 241.671 428.168C241.726 427.027 241.796 426.207 241.879 425.706C241.935 425.317 242.144 425.011 242.505 424.788C242.867 424.538 243.298 424.454 243.799 424.538C244.355 424.593 244.717 424.788 244.883 425.122C245.078 425.456 245.162 425.748 245.134 425.998ZM268.499 423.745C268.638 424.663 268.735 425.943 268.791 427.584C268.874 429.197 268.93 430.977 268.958 432.924C268.986 434.871 268.986 436.888 268.958 438.974C268.958 441.06 268.93 443.049 268.874 444.941C268.847 446.804 268.791 448.487 268.708 449.989C268.652 451.491 268.582 452.618 268.499 453.369C268.443 453.786 268.221 454.12 267.831 454.37C267.442 454.648 267.039 454.76 266.621 454.704C266.176 454.676 265.801 454.509 265.495 454.203C265.217 453.897 265.091 453.522 265.119 453.077C265.203 452.02 265.272 450.726 265.328 449.196C265.411 447.639 265.467 445.97 265.495 444.19C265.523 442.382 265.537 440.532 265.537 438.64C265.564 436.721 265.55 434.871 265.495 433.091C265.467 431.283 265.425 429.6 265.37 428.043C265.314 426.457 265.231 425.122 265.119 424.037C265.064 423.592 265.175 423.231 265.453 422.952C265.759 422.646 266.135 422.466 266.58 422.41C267.025 422.354 267.442 422.452 267.831 422.702C268.221 422.925 268.443 423.272 268.499 423.745Z" fill="#2BAF66"/>
<path d="M208.425 437.472C208.342 437.055 208.272 436.582 208.217 436.054C208.189 435.525 208.175 434.983 208.175 434.426C208.203 433.842 208.244 433.3 208.3 432.799C208.356 432.271 208.425 431.826 208.509 431.464C208.62 431.158 208.801 430.838 209.051 430.504C209.329 430.143 209.691 429.962 210.136 429.962H222.236C222.291 429.656 222.347 429.197 222.402 428.585C222.458 427.945 222.444 427.305 222.361 426.666C222.333 426.527 222.277 426.374 222.194 426.207C222.138 426.04 221.957 425.956 221.651 425.956H210.261C209.955 425.956 209.649 425.803 209.343 425.497C209.065 425.164 208.926 424.802 208.926 424.413C208.926 424.023 209.065 423.676 209.343 423.37C209.621 423.064 209.941 422.911 210.303 422.911H223.279C223.835 422.911 224.322 423.147 224.739 423.62C225.156 424.093 225.393 424.607 225.448 425.164C225.504 425.664 225.546 426.221 225.573 426.833C225.601 427.417 225.601 427.987 225.573 428.543C225.573 429.1 225.546 429.628 225.49 430.129C225.462 430.629 225.407 431.047 225.323 431.38C225.212 431.77 224.975 432.145 224.614 432.507C224.252 432.841 223.752 433.008 223.112 433.008H211.554C211.471 433.314 211.429 433.787 211.429 434.426C211.429 435.038 211.471 435.608 211.554 436.137C211.554 436.248 211.582 436.373 211.638 436.512C211.693 436.624 211.805 436.735 211.972 436.846C212.611 437.18 213.515 437.43 214.684 437.597C215.852 437.736 217.062 437.806 218.314 437.806C218.981 437.806 219.649 437.778 220.316 437.722C220.984 437.639 221.61 437.542 222.194 437.43C222.778 437.319 223.306 437.194 223.779 437.055C224.252 436.916 224.614 436.791 224.864 436.679C225.031 436.596 225.212 436.568 225.407 436.596C225.629 436.596 225.838 436.652 226.032 436.763C226.255 436.846 226.45 436.971 226.617 437.138C226.811 437.305 226.936 437.514 226.992 437.764C227.103 438.209 227.034 438.599 226.783 438.932C226.561 439.238 226.297 439.461 225.991 439.6C225.518 439.823 224.962 440.031 224.322 440.226C223.71 440.393 223.042 440.532 222.319 440.643C221.624 440.754 220.914 440.838 220.191 440.893C219.468 440.949 218.773 440.977 218.105 440.977C216.603 440.977 215.17 440.866 213.807 440.643C212.472 440.421 211.401 440.128 210.595 439.767C210.122 439.544 209.677 439.266 209.26 438.932C208.842 438.571 208.564 438.084 208.425 437.472ZM236.38 423.745C236.519 424.913 236.616 426.207 236.672 427.625C236.728 429.044 236.741 430.49 236.714 431.965C236.714 433.439 236.686 434.885 236.63 436.304C236.575 437.722 236.491 439.002 236.38 440.142C236.352 440.56 236.129 440.907 235.712 441.185C235.323 441.436 234.92 441.533 234.502 441.478C234.057 441.45 233.682 441.283 233.376 440.977C233.098 440.671 232.972 440.295 233 439.85C233.223 437.263 233.32 434.635 233.292 431.965C233.292 429.294 233.195 426.652 233 424.037C232.972 423.592 233.098 423.231 233.376 422.952C233.654 422.646 234.016 422.466 234.461 422.41C234.906 422.354 235.323 422.452 235.712 422.702C236.102 422.925 236.324 423.272 236.38 423.745ZM214.767 444.356C214.711 444.746 214.642 445.121 214.558 445.483C214.503 445.817 214.447 446.164 214.392 446.526H230.08C230.469 446.526 230.803 446.679 231.081 446.985C231.359 447.263 231.498 447.625 231.498 448.07C231.498 448.459 231.373 448.821 231.123 449.155C230.9 449.461 230.566 449.614 230.121 449.614H214.266C214.266 450.309 214.35 451.06 214.517 451.867C214.545 451.95 214.572 452.034 214.6 452.117C214.656 452.173 214.753 452.228 214.892 452.284C215.254 452.451 215.755 452.59 216.394 452.701C217.034 452.812 217.757 452.896 218.564 452.951C219.398 453.035 220.275 453.091 221.193 453.118C222.138 453.174 223.084 453.202 224.03 453.202C226.088 453.202 227.896 453.118 229.454 452.951C231.039 452.785 232.18 452.548 232.875 452.242C232.986 452.187 233.07 452.131 233.125 452.075C233.181 451.992 233.223 451.881 233.251 451.742C233.334 451.157 233.39 450.601 233.417 450.073C233.473 449.516 233.487 448.974 233.459 448.445C233.431 447.889 233.376 447.319 233.292 446.735C233.209 446.151 233.098 445.511 232.959 444.815C232.875 444.37 232.972 443.967 233.251 443.605C233.529 443.244 233.904 443.035 234.377 442.98C234.822 442.924 235.212 443.021 235.545 443.272C235.907 443.522 236.13 443.842 236.213 444.231C236.519 445.65 236.7 447.11 236.755 448.612C236.839 450.086 236.728 451.505 236.422 452.868C236.282 453.508 236.018 453.995 235.629 454.328C235.239 454.662 234.794 454.94 234.294 455.163C233.793 455.385 233.153 455.566 232.374 455.705C231.596 455.872 230.733 455.997 229.788 456.081C228.87 456.192 227.896 456.262 226.867 456.289C225.838 456.345 224.822 456.373 223.821 456.373C222.736 456.373 221.679 456.345 220.65 456.289C219.621 456.234 218.647 456.15 217.729 456.039C216.839 455.956 216.033 455.83 215.31 455.664C214.586 455.524 213.988 455.358 213.515 455.163C213.043 454.94 212.611 454.69 212.222 454.412C211.833 454.134 211.527 453.633 211.304 452.91C211.165 452.437 211.068 451.853 211.012 451.157C210.956 450.462 210.929 449.711 210.929 448.904C210.956 448.07 211.012 447.221 211.095 446.359C211.179 445.469 211.304 444.621 211.471 443.814C211.554 443.425 211.763 443.105 212.097 442.854C212.458 442.604 212.848 442.507 213.265 442.562C213.738 442.618 214.127 442.827 214.433 443.188C214.739 443.522 214.851 443.911 214.767 444.356Z" fill="#2BAF66"/>
<path d="M179.373 440.351C179.401 440.49 179.512 440.601 179.707 440.685C180.374 440.963 181.445 441.199 182.919 441.394C184.421 441.589 186.354 441.686 188.719 441.686C190.471 441.686 192.224 441.561 193.976 441.311C195.756 441.06 197.356 440.699 198.774 440.226C199.08 440.087 199.428 440.115 199.817 440.309C200.234 440.504 200.513 440.81 200.652 441.227C200.791 441.644 200.777 442.034 200.61 442.395C200.471 442.729 200.262 442.966 199.984 443.105C199.233 443.439 198.385 443.717 197.439 443.939C196.493 444.134 195.506 444.301 194.477 444.44C193.447 444.551 192.404 444.649 191.347 444.732C190.318 444.788 189.331 444.815 188.385 444.815C187.439 444.815 186.48 444.802 185.506 444.774C184.533 444.718 183.601 444.649 182.711 444.565C181.821 444.454 181 444.329 180.249 444.19C179.498 444.023 178.844 443.828 178.288 443.605C177.787 443.383 177.328 443.105 176.911 442.771C176.522 442.409 176.257 441.923 176.118 441.311C176.007 440.81 175.924 440.17 175.868 439.391C175.812 438.585 175.771 437.722 175.743 436.805C175.715 435.887 175.701 434.941 175.701 433.967C175.729 432.966 175.757 432.02 175.785 431.13C175.812 430.212 175.854 429.378 175.91 428.627C175.965 427.876 176.021 427.278 176.077 426.833C176.188 426.276 176.438 425.762 176.828 425.289C177.217 424.816 177.676 424.58 178.204 424.58H198.273C198.579 424.58 198.885 424.719 199.191 424.997C199.525 425.275 199.692 425.637 199.692 426.082C199.692 426.471 199.553 426.833 199.275 427.166C198.997 427.472 198.691 427.625 198.357 427.625H179.915C179.609 427.625 179.428 427.709 179.373 427.876C179.317 428.043 179.275 428.196 179.248 428.335C179.192 428.891 179.136 429.684 179.081 430.713C179.025 431.742 178.983 432.841 178.956 434.009C178.956 435.177 178.983 436.332 179.039 437.472C179.095 438.613 179.206 439.572 179.373 440.351ZM173.657 452.618C173.212 452.562 172.85 452.367 172.572 452.034C172.294 451.672 172.182 451.283 172.238 450.865C172.294 450.392 172.488 450.031 172.822 449.781C173.184 449.53 173.573 449.433 173.99 449.488C175.103 449.6 176.41 449.697 177.912 449.781C179.442 449.836 181.069 449.892 182.794 449.947C184.519 449.975 186.299 450.003 188.135 450.031C189.97 450.031 191.751 450.017 193.475 449.989C195.2 449.934 196.813 449.864 198.315 449.781C199.845 449.697 201.152 449.6 202.237 449.488C202.71 449.433 203.113 449.544 203.447 449.822C203.809 450.1 204.003 450.448 204.031 450.865C204.087 451.283 203.962 451.672 203.656 452.034C203.35 452.367 203.002 452.562 202.613 452.618C201.806 452.729 200.652 452.812 199.15 452.868C197.675 452.952 196.02 453.007 194.185 453.035C192.377 453.091 190.457 453.118 188.427 453.118C186.424 453.146 184.477 453.146 182.585 453.118C180.722 453.091 178.997 453.035 177.412 452.952C175.854 452.868 174.602 452.757 173.657 452.618Z" fill="#2BAF66"/>
<path d="M130.457 430.379C130.429 430.49 130.415 430.629 130.415 430.796C130.415 430.963 130.443 431.116 130.498 431.255C130.526 431.394 130.638 431.506 130.832 431.589C131.5 431.867 132.64 432.09 134.254 432.257C135.867 432.396 138.162 432.465 141.138 432.465C142.89 432.465 144.684 432.382 146.52 432.215C148.356 432.02 149.983 431.686 151.402 431.214C151.708 431.075 152.056 431.102 152.445 431.297C152.862 431.464 153.14 431.756 153.279 432.173C153.419 432.59 153.405 432.966 153.238 433.3C153.099 433.634 152.89 433.87 152.612 434.009C151.861 434.343 150.999 434.607 150.025 434.802C149.052 434.997 148.036 435.15 146.979 435.261C145.95 435.372 144.893 435.455 143.808 435.511C142.751 435.567 141.75 435.595 140.804 435.595C139.858 435.595 138.829 435.581 137.717 435.553C136.632 435.525 135.561 435.469 134.504 435.386C133.475 435.302 132.515 435.191 131.625 435.052C130.735 434.913 130.012 434.732 129.455 434.51C128.955 434.287 128.496 434.009 128.079 433.675C127.689 433.314 127.425 432.841 127.286 432.257C127.202 431.784 127.161 431.241 127.161 430.629C127.188 429.99 127.244 429.406 127.328 428.877C127.383 428.571 127.564 428.237 127.87 427.876C128.176 427.514 128.538 427.333 128.955 427.333H148.982C149.038 426.972 149.038 426.61 148.982 426.249C148.954 426.109 148.912 425.956 148.857 425.79C148.829 425.623 148.662 425.539 148.356 425.539H129.08C128.774 425.539 128.468 425.386 128.162 425.08C127.884 424.746 127.745 424.385 127.745 423.995C127.745 423.606 127.884 423.258 128.162 422.952C128.44 422.646 128.76 422.493 129.122 422.493H149.524C150.081 422.493 150.623 422.646 151.152 422.952C151.68 423.231 152 423.689 152.111 424.329C152.195 424.941 152.236 425.664 152.236 426.499C152.236 427.306 152.181 428.043 152.07 428.71C151.986 429.1 151.75 429.475 151.36 429.837C150.999 430.198 150.498 430.379 149.858 430.379H130.457ZM125.659 439.976C125.214 439.92 124.852 439.725 124.574 439.391C124.296 439.03 124.184 438.64 124.24 438.223C124.296 437.75 124.49 437.389 124.824 437.138C125.186 436.888 125.575 436.791 125.992 436.846C127.105 436.958 128.412 437.055 129.914 437.138C131.444 437.194 133.071 437.25 134.796 437.305C136.521 437.333 138.301 437.361 140.137 437.389C141.972 437.389 143.753 437.375 145.477 437.347C147.202 437.291 148.815 437.222 150.317 437.138C151.847 437.055 153.154 436.958 154.239 436.846C154.712 436.791 155.115 436.902 155.449 437.18C155.811 437.458 156.005 437.806 156.033 438.223C156.089 438.64 155.964 439.03 155.658 439.391C155.352 439.725 155.004 439.92 154.615 439.976C153.808 440.087 152.654 440.184 151.152 440.268C149.677 440.323 148.022 440.379 146.187 440.434C144.378 440.462 142.459 440.49 140.429 440.518C138.426 440.518 136.479 440.504 134.587 440.476C132.724 440.448 130.999 440.393 129.414 440.309C127.856 440.226 126.604 440.115 125.659 439.976ZM130.498 450.532C130.471 450.754 130.457 451.004 130.457 451.283C130.485 451.533 130.526 451.811 130.582 452.117C130.61 452.256 130.721 452.367 130.916 452.451C131.25 452.59 131.806 452.715 132.585 452.826C133.391 452.938 134.281 453.021 135.255 453.077C136.256 453.16 137.286 453.216 138.343 453.244C139.399 453.299 140.373 453.327 141.263 453.327C143.016 453.327 144.81 453.202 146.645 452.952C148.509 452.701 150.15 452.34 151.569 451.867C151.875 451.728 152.222 451.755 152.612 451.95C153.029 452.117 153.307 452.409 153.446 452.826C153.585 453.244 153.572 453.619 153.405 453.953C153.266 454.287 153.057 454.523 152.779 454.662C152.028 454.996 151.166 455.26 150.192 455.455C149.218 455.677 148.203 455.844 147.146 455.956C146.089 456.095 145.018 456.192 143.933 456.248C142.876 456.331 141.875 456.373 140.929 456.373C139.984 456.373 138.954 456.359 137.842 456.331C136.757 456.303 135.686 456.248 134.629 456.164C133.572 456.081 132.599 455.969 131.708 455.83C130.818 455.691 130.095 455.511 129.539 455.288C129.038 455.065 128.579 454.773 128.162 454.412C127.773 454.078 127.508 453.605 127.369 452.993C127.23 452.298 127.175 451.561 127.202 450.782C127.258 449.975 127.328 449.377 127.411 448.988C127.494 448.682 127.675 448.348 127.953 447.986C128.232 447.625 128.593 447.444 129.038 447.444H149.483C149.51 447.305 149.538 447.11 149.566 446.86C149.594 446.582 149.594 446.373 149.566 446.234C149.538 446.095 149.469 445.956 149.357 445.817C149.274 445.65 149.079 445.566 148.773 445.566H129.205C128.899 445.566 128.593 445.413 128.287 445.108C127.981 444.774 127.828 444.398 127.828 443.981C127.828 443.592 127.967 443.244 128.245 442.938C128.524 442.632 128.843 442.479 129.205 442.479H150.442C150.999 442.479 151.485 442.632 151.903 442.938C152.32 443.244 152.584 443.703 152.695 444.315C152.751 444.593 152.779 444.941 152.779 445.358C152.807 445.775 152.807 446.206 152.779 446.651C152.779 447.069 152.751 447.486 152.695 447.903C152.668 448.292 152.612 448.626 152.528 448.904C152.445 449.294 152.222 449.669 151.861 450.031C151.499 450.365 150.999 450.532 150.359 450.532H130.498Z" fill="#2BAF66"/>
<path d="M92.8302 448.195C92.7189 447.694 92.6354 446.957 92.5798 445.984C92.552 444.982 92.5381 443.939 92.5381 442.854C92.5659 441.77 92.6076 440.754 92.6633 439.809C92.7467 438.863 92.8302 438.181 92.9136 437.764C92.9692 437.458 93.1361 437.124 93.4143 436.763C93.7203 436.401 94.0958 436.22 94.5408 436.22H106.641C106.724 435.803 106.78 435.247 106.807 434.551C106.863 433.828 106.891 433.105 106.891 432.382C106.919 431.631 106.919 430.935 106.891 430.296C106.863 429.628 106.821 429.127 106.766 428.794C106.738 428.627 106.682 428.46 106.599 428.293C106.543 428.126 106.362 428.043 106.056 428.043H94.666C94.36 428.043 94.054 427.89 93.7481 427.584C93.4699 427.25 93.3308 426.888 93.3308 426.499C93.3308 426.109 93.4699 425.762 93.7481 425.456C94.0262 425.15 94.3461 424.997 94.7077 424.997H107.684C108.24 424.997 108.713 425.205 109.102 425.623C109.492 426.012 109.742 426.554 109.853 427.25C109.937 427.751 109.992 428.46 110.02 429.378C110.048 430.296 110.062 431.269 110.062 432.298C110.062 433.3 110.034 434.287 109.978 435.261C109.923 436.206 109.839 436.985 109.728 437.597C109.645 437.987 109.408 438.362 109.019 438.724C108.657 439.085 108.157 439.266 107.517 439.266H95.9594C95.9038 439.628 95.8621 440.142 95.8342 440.81C95.8064 441.45 95.7925 442.131 95.7925 442.854C95.7925 443.55 95.7925 444.245 95.7925 444.941C95.8203 445.608 95.8621 446.164 95.9177 446.61C95.9733 447.082 96.1124 447.388 96.3349 447.527C97.0859 447.861 98.0178 448.112 99.1304 448.278C100.271 448.445 101.467 448.529 102.719 448.529C103.386 448.529 104.054 448.501 104.721 448.445C105.389 448.362 106.015 448.265 106.599 448.153C107.183 448.042 107.712 447.917 108.184 447.778C108.657 447.639 109.019 447.514 109.269 447.402C109.436 447.319 109.617 447.291 109.812 447.319C110.034 447.319 110.243 447.374 110.437 447.486C110.66 447.569 110.855 447.694 111.022 447.861C111.216 448.028 111.341 448.237 111.397 448.487C111.508 448.932 111.439 449.322 111.188 449.655C110.966 449.961 110.702 450.184 110.396 450.323C109.923 450.545 109.367 450.754 108.727 450.949C108.115 451.116 107.447 451.255 106.724 451.366C106.029 451.477 105.319 451.561 104.596 451.616C103.873 451.672 103.178 451.7 102.51 451.7C100.869 451.7 99.3807 451.575 98.0456 451.324C96.7104 451.074 95.6952 450.796 94.9998 450.49C94.5269 450.267 94.0819 449.989 93.6646 449.655C93.2474 449.294 92.9692 448.807 92.8302 448.195ZM119.533 423.745C119.672 424.663 119.77 425.943 119.825 427.584C119.909 429.197 119.964 430.977 119.992 432.924C120.02 434.871 120.02 436.888 119.992 438.974C119.992 441.06 119.964 443.049 119.909 444.941C119.881 446.804 119.825 448.487 119.742 449.989C119.686 451.491 119.617 452.618 119.533 453.369C119.478 453.786 119.255 454.12 118.866 454.37C118.476 454.648 118.073 454.76 117.656 454.704C117.211 454.676 116.835 454.509 116.529 454.203C116.251 453.897 116.126 453.522 116.154 453.077C116.237 452.02 116.307 450.726 116.362 449.196C116.446 447.639 116.501 445.97 116.529 444.19C116.557 442.382 116.571 440.532 116.571 438.64C116.599 436.721 116.585 434.871 116.529 433.091C116.501 431.283 116.46 429.6 116.404 428.043C116.348 426.457 116.265 425.122 116.154 424.037C116.098 423.592 116.209 423.231 116.487 422.952C116.793 422.646 117.169 422.466 117.614 422.41C118.059 422.354 118.476 422.452 118.866 422.702C119.255 422.925 119.478 423.272 119.533 423.745Z" fill="#2BAF66"/>
<path d="M67.5943 428.043V433.425C67.5943 437.875 66.7599 441.561 65.0909 444.482C63.422 447.374 61.1133 449.586 58.1648 451.116C57.7754 451.31 57.3582 451.366 56.9131 451.283C56.4959 451.171 56.176 450.921 55.9535 450.532C55.7032 450.17 55.6197 449.753 55.7032 449.28C55.8144 448.807 56.0648 448.473 56.4542 448.278C57.7615 447.555 58.902 446.749 59.8755 445.859C60.8491 444.941 61.6557 443.884 62.2955 442.688C62.9352 441.491 63.4081 440.128 63.7141 438.599C64.02 437.069 64.173 435.33 64.173 433.383V428.043H57.7476C57.4138 428.043 57.0939 427.89 56.788 427.584C56.5098 427.25 56.3707 426.888 56.3707 426.499C56.3707 426.109 56.5098 425.762 56.788 425.456C57.0661 425.122 57.3721 424.955 57.7059 424.955H74.3953C74.7012 424.955 75.0072 425.108 75.3132 425.414C75.647 425.692 75.8139 426.054 75.8139 426.499C75.8139 426.888 75.6748 427.25 75.3966 427.584C75.1185 427.89 74.7986 428.043 74.437 428.043H67.5943ZM76.3145 448.404C76.6205 448.737 76.7318 449.127 76.6483 449.572C76.5649 450.017 76.3563 450.379 76.0225 450.657C75.7165 450.963 75.3271 451.116 74.8542 451.116C74.3814 451.088 73.9919 450.893 73.686 450.532L67.803 443.731C67.5804 443.425 67.4692 443.063 67.4692 442.646C67.497 442.201 67.7056 441.825 68.095 441.519C68.4288 441.213 68.8321 441.06 69.305 441.06C69.7779 441.06 70.1673 441.241 70.4733 441.603L76.3145 448.404ZM84.3672 438.098C84.3672 439.711 84.3532 441.311 84.3254 442.896C84.2976 444.454 84.2559 445.914 84.2003 447.277C84.1724 448.64 84.1307 449.85 84.0751 450.907C84.0195 451.964 83.9638 452.785 83.9082 453.369C83.8526 453.786 83.63 454.12 83.2406 454.37C82.8512 454.648 82.4479 454.76 82.0306 454.704C81.5856 454.676 81.2101 454.509 80.9041 454.203C80.626 453.897 80.5008 453.522 80.5286 453.077C80.6121 452.02 80.6816 450.726 80.7372 449.196C80.8207 447.639 80.8763 445.97 80.9041 444.19C80.9319 442.382 80.9458 440.532 80.9458 438.64C80.9737 436.721 80.9597 434.871 80.9041 433.091C80.8763 431.283 80.8346 429.6 80.7789 428.043C80.7233 426.457 80.6399 425.122 80.5286 424.037C80.473 423.592 80.5842 423.231 80.8624 422.952C81.1684 422.646 81.5439 422.466 81.9889 422.41C82.434 422.354 82.8512 422.452 83.2406 422.702C83.63 422.925 83.8526 423.272 83.9082 423.745C84.0473 424.858 84.1585 426.429 84.242 428.46C84.3254 430.463 84.3672 432.646 84.3672 435.01H88.3309C88.6369 435.01 88.9428 435.163 89.2488 435.469C89.5826 435.748 89.7495 436.109 89.7495 436.554C89.7495 436.944 89.6104 437.305 89.3322 437.639C89.0541 437.945 88.7342 438.098 88.3726 438.098H84.3672Z" fill="#2BAF66"/>
<path d="M23 430.296C23 429.044 23.2503 427.904 23.751 426.875C24.2517 425.845 24.9332 424.969 25.7955 424.246C26.6856 423.495 27.7008 422.925 28.8413 422.535C30.0095 422.118 31.2334 421.909 32.5129 421.909C33.8203 421.909 35.0442 422.118 36.1846 422.535C37.325 422.925 38.3264 423.495 39.1887 424.246C40.0788 424.969 40.7742 425.845 41.2749 426.875C41.7755 427.904 42.0259 429.044 42.0259 430.296C42.0259 431.548 41.7755 432.688 41.2749 433.717C40.7742 434.746 40.0788 435.636 39.1887 436.387C38.3264 437.111 37.325 437.681 36.1846 438.098C35.0442 438.488 33.8203 438.682 32.5129 438.682C31.2334 438.682 30.0095 438.488 28.8413 438.098C27.7008 437.681 26.6856 437.111 25.7955 436.387C24.9332 435.636 24.2517 434.746 23.751 433.717C23.2503 432.688 23 431.548 23 430.296ZM26.3796 430.338C26.3796 431.172 26.5326 431.923 26.8386 432.591C27.1723 433.23 27.6174 433.773 28.1737 434.218C28.73 434.663 29.3698 434.997 30.093 435.219C30.844 435.442 31.6367 435.553 32.4712 435.553C33.3057 435.553 34.0984 435.442 34.8495 435.219C35.6005 434.997 36.2541 434.663 36.8105 434.218C37.3668 433.773 37.8118 433.23 38.1456 432.591C38.4794 431.923 38.6463 431.172 38.6463 430.338C38.6463 429.475 38.4794 428.724 38.1456 428.084C37.8118 427.417 37.3668 426.861 36.8105 426.416C36.2541 425.971 35.6005 425.637 34.8495 425.414C34.0984 425.164 33.3057 425.039 32.4712 425.039C31.6367 425.039 30.844 425.164 30.093 425.414C29.3698 425.637 28.73 425.971 28.1737 426.416C27.6174 426.861 27.1723 427.417 26.8386 428.084C26.5326 428.724 26.3796 429.475 26.3796 430.338ZM52.3733 423.745C52.6514 426.11 52.7766 428.446 52.7488 430.755C52.721 433.036 52.5958 435.33 52.3733 437.639C52.3455 438.056 52.1229 438.404 51.7057 438.682C51.3163 438.933 50.913 439.03 50.4957 438.974C50.0507 438.946 49.6752 438.78 49.3692 438.474C49.091 438.168 48.9659 437.792 48.9937 437.347C49.105 436.068 49.1745 434.899 49.2023 433.842C49.2579 432.785 49.2858 431.756 49.2858 430.755C49.2858 429.726 49.2579 428.683 49.2023 427.626C49.1467 426.541 49.0771 425.345 48.9937 424.037C48.9659 423.592 49.091 423.231 49.3692 422.953C49.6474 422.647 50.009 422.466 50.454 422.41C50.8991 422.354 51.3163 422.452 51.7057 422.702C52.0951 422.925 52.3177 423.272 52.3733 423.745ZM30.3016 449.697C30.2738 449.92 30.2599 450.281 30.2599 450.782C30.2599 451.255 30.3016 451.686 30.385 452.075C30.4129 452.215 30.5241 452.326 30.7188 452.409C31.0526 452.548 31.6089 452.673 32.3878 452.785C33.1944 452.896 34.0845 452.979 35.0581 453.035C36.0594 453.119 37.0886 453.174 38.1456 453.202C39.2026 453.258 40.1761 453.285 41.0662 453.285C42.8186 453.285 44.6127 453.16 46.4486 452.91C48.3122 452.66 49.9533 452.298 51.3719 451.825C51.6779 451.686 52.0256 451.714 52.415 451.909C52.8322 452.103 53.1104 452.409 53.2495 452.826C53.3886 453.244 53.3747 453.619 53.2078 453.953C53.0687 454.287 52.8601 454.523 52.5819 454.662C51.8309 454.996 50.9686 455.26 49.9951 455.455C49.0215 455.678 48.0062 455.844 46.9492 455.956C45.8923 456.095 44.8213 456.192 43.7365 456.248C42.6795 456.331 41.6782 456.373 40.7325 456.373C39.7867 456.373 38.7575 456.359 37.6449 456.331C36.5601 456.303 35.4892 456.248 34.4322 456.164C33.3752 456.081 32.4017 455.97 31.5116 455.831C30.6215 455.691 29.8983 455.511 29.342 455.288C28.8413 455.066 28.3823 454.774 27.9651 454.412C27.5757 454.078 27.3114 453.605 27.1723 452.993C27.0889 452.576 27.0333 452.131 27.0054 451.658C26.9776 451.158 26.9637 450.685 26.9637 450.24C26.9915 449.767 27.0333 449.35 27.0889 448.988C27.1445 448.626 27.1862 448.348 27.2141 448.153C27.2975 447.847 27.4783 447.514 27.7565 447.152C28.0346 446.79 28.3962 446.61 28.8413 446.61H49.2858C49.3414 446.387 49.3692 446.081 49.3692 445.692C49.397 445.275 49.3831 444.913 49.3275 444.607C49.2997 444.468 49.2301 444.315 49.1189 444.148C49.0354 443.981 48.8407 443.898 48.5347 443.898H29.0082C28.7022 443.898 28.3962 443.759 28.0903 443.48C27.7843 443.174 27.6313 442.785 27.6313 442.312C27.6313 441.923 27.7704 441.575 28.0485 441.269C28.3267 440.963 28.6466 440.81 29.0082 440.81H50.3288C50.8852 440.81 51.3719 441.047 51.7892 441.519C52.2064 441.992 52.4428 442.521 52.4985 443.105C52.6375 444.023 52.6932 444.927 52.6654 445.817C52.6375 446.707 52.5402 447.458 52.3733 448.07C52.262 448.459 52.0256 448.835 51.664 449.197C51.3024 449.53 50.8017 449.697 50.1619 449.697H30.3016Z" fill="#2BAF66"/>
<path d="M593.076 503.02C589.204 504.288 584.832 505.089 579.959 505.423C575.152 505.823 570.446 506.057 565.839 506.124C563.503 506.124 561.066 506.057 558.529 505.924C555.993 505.79 553.489 505.59 551.019 505.323C548.616 505.122 546.346 504.822 544.21 504.422C542.074 504.021 540.271 503.52 538.803 502.919C537.334 502.319 535.798 501.284 534.196 499.815C532.594 498.413 531.559 496.611 531.092 494.408C530.558 491.871 530.291 489.001 530.291 485.796C530.291 482.592 530.525 479.621 530.992 476.884C531.192 475.616 531.559 474.548 532.093 473.68C532.694 472.745 533.362 471.977 534.096 471.377C534.831 470.776 535.598 470.342 536.399 470.075C537.267 469.808 538.035 469.674 538.702 469.674H593.677C594.412 469.674 595.179 469.841 595.98 470.175C596.848 470.442 597.649 470.876 598.384 471.477C599.118 472.078 599.752 472.845 600.286 473.78C600.887 474.648 601.254 475.682 601.388 476.884C601.722 479.554 601.922 482.525 601.989 485.796C602.055 489.001 601.822 491.871 601.288 494.408C601.087 495.409 600.687 496.377 600.086 497.312C599.552 498.246 598.918 499.081 598.183 499.815C597.449 500.616 596.615 501.284 595.68 501.818C594.812 502.352 593.944 502.753 593.076 503.02ZM525.384 454.153C524.917 452.017 524.717 449.647 524.784 447.043C524.85 444.373 525.151 441.97 525.685 439.834C526.085 438.231 526.82 436.896 527.888 435.828C529.023 434.693 530.091 434.126 531.092 434.126H559.13C559.197 433.859 559.23 433.492 559.23 433.024C559.23 432.49 559.23 432.056 559.23 431.723C559.23 431.055 558.83 430.721 558.029 430.721H532.294C530.558 430.721 529.156 430.054 528.088 428.719C527.02 427.317 526.486 425.748 526.486 424.012C526.486 422.276 527.02 420.741 528.088 419.406C529.156 418.071 530.558 417.403 532.294 417.403H566.941C569.077 417.403 570.846 418.104 572.248 419.506C573.65 420.908 574.484 422.577 574.751 424.513C574.885 425.781 574.985 427.216 575.052 428.819C575.119 430.354 575.152 431.923 575.152 433.525C575.152 435.06 575.085 436.529 574.952 437.931C574.818 439.266 574.618 440.401 574.351 441.336C573.817 443.205 572.849 444.707 571.447 445.842C570.045 446.91 568.576 447.444 567.041 447.444H540.905V449.747C540.905 450.548 541.339 451.116 542.207 451.449C543.542 451.783 545.178 452.017 547.114 452.15C549.05 452.284 551.086 452.351 553.222 452.351C554.758 452.351 556.326 452.284 557.929 452.15C559.598 452.017 561.166 451.85 562.635 451.65C564.17 451.383 565.506 451.116 566.64 450.849C567.842 450.582 568.677 450.315 569.144 450.048C569.945 449.714 570.813 449.547 571.747 449.547C572.682 449.48 573.583 449.614 574.451 449.947C575.319 450.281 576.12 450.815 576.854 451.55C577.589 452.217 578.089 453.118 578.356 454.253C578.623 455.321 578.623 456.289 578.356 457.157C578.089 458.025 577.689 458.826 577.155 459.56C576.621 460.228 576.02 460.795 575.352 461.263C574.685 461.73 574.084 462.064 573.55 462.264C572.281 462.865 570.813 463.399 569.144 463.866C567.475 464.334 565.706 464.734 563.837 465.068C561.967 465.335 560.065 465.569 558.129 465.769C556.26 465.902 554.491 465.969 552.822 465.969C550.952 465.969 549.05 465.902 547.114 465.769C545.245 465.569 543.442 465.335 541.707 465.068C539.971 464.734 538.335 464.367 536.8 463.966C535.331 463.566 534.063 463.132 532.995 462.665C532.327 462.331 531.593 461.93 530.792 461.463C530.057 460.929 529.323 460.328 528.589 459.661C527.854 458.926 527.187 458.125 526.586 457.257C525.985 456.323 525.585 455.288 525.384 454.153ZM600.987 423.111C601.321 425.981 601.555 429.019 601.688 432.223C601.822 435.361 601.888 438.532 601.888 441.736C601.888 444.941 601.788 448.112 601.588 451.249C601.454 454.387 601.254 457.391 600.987 460.261C600.92 461.33 600.62 462.331 600.086 463.266C599.552 464.2 598.884 465.001 598.083 465.669C597.282 466.27 596.348 466.737 595.279 467.071C594.211 467.404 593.076 467.505 591.875 467.371C589.338 467.037 587.402 466.069 586.067 464.467C584.732 462.798 584.131 460.962 584.264 458.96C584.531 455.956 584.698 453.052 584.765 450.248C584.899 447.444 584.965 444.674 584.965 441.937C584.965 439.133 584.899 436.329 584.765 433.525C584.632 430.655 584.465 427.65 584.264 424.513C584.131 422.577 584.698 420.808 585.967 419.206C587.235 417.537 589.104 416.535 591.574 416.202C594.044 415.868 596.147 416.402 597.883 417.804C599.619 419.206 600.653 420.975 600.987 423.111ZM585.466 486.898C585.466 486.364 585.333 485.83 585.065 485.295C584.798 484.695 583.964 484.394 582.562 484.394H549.417C548.149 484.394 547.381 484.628 547.114 485.095C546.914 485.496 546.813 485.863 546.813 486.197V487.599C546.813 488.867 547.581 489.635 549.117 489.902C551.386 490.236 554.123 490.536 557.328 490.803C560.532 491.003 563.636 491.103 566.64 491.103C569.845 491.103 572.882 491.037 575.753 490.903C578.623 490.703 581.16 490.402 583.363 490.002C584.698 489.802 585.399 489.034 585.466 487.699V486.898Z" fill="#0F3D24"/>
<path d="M455.25 453.552C455.451 454.821 456.352 455.589 457.954 455.856C459.69 456.189 461.893 456.456 464.563 456.657C467.233 456.857 470.471 456.957 474.276 456.957C478.348 456.957 482.287 456.657 486.092 456.056C489.897 455.455 493.502 454.687 496.907 453.753C497.842 453.486 498.843 453.386 499.911 453.452C500.979 453.519 501.981 453.753 502.915 454.153C503.85 454.554 504.684 455.155 505.419 455.956C506.153 456.69 506.687 457.625 507.021 458.759C507.622 460.896 507.521 462.865 506.72 464.668C505.986 466.403 504.784 467.638 503.115 468.373C501.18 469.24 498.977 469.975 496.506 470.576C494.036 471.176 491.466 471.644 488.796 471.977C486.192 472.311 483.556 472.545 480.885 472.678C478.282 472.812 475.812 472.879 473.475 472.879C471.139 472.879 468.735 472.812 466.265 472.678C463.862 472.545 461.492 472.378 459.156 472.178C456.886 471.911 454.75 471.577 452.747 471.176C450.744 470.776 449.009 470.275 447.54 469.674C446.071 469.074 444.536 468.072 442.934 466.67C441.331 465.202 440.297 463.332 439.829 461.063C439.429 459.127 439.128 456.757 438.928 453.953C438.795 451.082 438.728 448.145 438.728 445.141C438.795 442.07 438.895 439.133 439.028 436.329C439.229 433.525 439.462 431.189 439.729 429.319C439.863 428.185 440.197 427.15 440.731 426.215C441.265 425.214 441.899 424.379 442.633 423.712C443.368 422.977 444.102 422.41 444.836 422.01C445.637 421.609 446.372 421.409 447.039 421.409H498.609C499.41 421.409 500.178 421.642 500.912 422.11C501.647 422.51 502.314 423.078 502.915 423.812C503.516 424.48 503.983 425.281 504.317 426.215C504.718 427.15 504.918 428.118 504.918 429.119C504.918 429.987 504.751 430.888 504.417 431.823C504.083 432.757 503.65 433.625 503.115 434.426C502.581 435.227 501.914 435.895 501.113 436.429C500.378 436.896 499.544 437.13 498.609 437.13H458.054C456.919 437.13 456.218 437.397 455.951 437.931C455.751 438.398 455.618 438.799 455.551 439.133C455.351 441.069 455.184 443.405 455.05 446.142C454.917 448.813 454.983 451.283 455.25 453.552ZM437.526 497.112C436.592 496.978 435.657 496.678 434.722 496.21C433.855 495.81 433.054 495.242 432.319 494.508C431.652 493.774 431.118 492.873 430.717 491.804C430.383 490.736 430.283 489.501 430.417 488.099C430.55 486.698 430.917 485.529 431.518 484.595C432.119 483.66 432.853 482.926 433.721 482.392C434.589 481.791 435.524 481.424 436.525 481.29C437.593 481.09 438.561 481.056 439.429 481.19C442.032 481.457 445.103 481.691 448.641 481.891C452.246 482.024 456.085 482.158 460.157 482.292C464.296 482.358 468.535 482.425 472.874 482.492C477.214 482.492 481.419 482.458 485.492 482.392C489.63 482.258 493.469 482.125 497.007 481.991C500.612 481.791 503.683 481.524 506.22 481.19C507.221 481.056 508.222 481.09 509.224 481.29C510.292 481.49 511.26 481.858 512.128 482.392C512.996 482.926 513.73 483.693 514.331 484.695C514.932 485.696 515.265 486.931 515.332 488.4C515.466 489.802 515.332 491.037 514.932 492.105C514.531 493.106 513.964 493.941 513.229 494.608C512.562 495.343 511.761 495.91 510.826 496.311C509.958 496.711 509.09 496.978 508.222 497.112C506.22 497.379 503.416 497.579 499.811 497.712C496.206 497.913 492.167 498.046 487.695 498.113C483.222 498.247 478.515 498.313 473.575 498.313C468.635 498.38 463.862 498.38 459.256 498.313C454.716 498.247 450.511 498.113 446.639 497.913C442.833 497.712 439.796 497.445 437.526 497.112Z" fill="#0F3D24"/>
<path d="M340.578 436.629C340.578 433.091 341.279 429.987 342.681 427.317C344.15 424.646 346.119 422.41 348.589 420.608C351.059 418.738 353.93 417.337 357.201 416.402C360.539 415.467 364.043 415 367.715 415C371.387 415 374.858 415.467 378.129 416.402C381.4 417.337 384.271 418.738 386.741 420.608C389.211 422.41 391.18 424.646 392.649 427.317C394.118 429.987 394.852 433.091 394.852 436.629C394.852 440.101 394.118 443.205 392.649 445.942C391.247 448.612 389.311 450.882 386.841 452.751C384.371 454.554 381.5 455.922 378.229 456.857C374.958 457.792 371.453 458.259 367.715 458.259C364.043 458.259 360.539 457.792 357.201 456.857C353.93 455.922 351.059 454.554 348.589 452.751C346.119 450.882 344.15 448.612 342.681 445.942C341.279 443.205 340.578 440.101 340.578 436.629ZM357.301 436.73C357.301 438.933 358.169 440.768 359.904 442.237C361.707 443.639 364.277 444.34 367.615 444.34C371.02 444.34 373.623 443.606 375.426 442.137C377.228 440.668 378.129 438.866 378.129 436.73C378.129 434.527 377.228 432.691 375.426 431.222C373.623 429.687 371.02 428.919 367.615 428.919C364.277 428.919 361.707 429.653 359.904 431.122C358.169 432.524 357.301 434.393 357.301 436.73ZM419.686 423.111C420.02 425.982 420.253 428.619 420.387 431.022C420.52 433.358 420.587 435.661 420.587 437.931C420.587 440.201 420.487 442.537 420.287 444.941C420.153 447.277 419.953 449.881 419.686 452.751C419.619 453.819 419.319 454.821 418.785 455.755C418.25 456.69 417.583 457.491 416.782 458.159C415.981 458.76 415.046 459.227 413.978 459.561C412.91 459.894 411.775 459.995 410.573 459.861C408.037 459.527 406.067 458.559 404.665 456.957C403.33 455.288 402.763 453.452 402.963 451.45C403.23 449.247 403.397 446.943 403.464 444.54C403.597 442.07 403.631 439.667 403.564 437.33C403.564 434.927 403.497 432.624 403.364 430.421C403.297 428.218 403.163 426.249 402.963 424.513C402.763 422.577 403.297 420.808 404.565 419.206C405.9 417.537 407.803 416.535 410.273 416.202C412.743 415.868 414.846 416.402 416.582 417.804C418.317 419.206 419.352 420.975 419.686 423.111ZM366.013 491.204C366.28 491.938 366.881 492.439 367.815 492.706C368.883 492.906 370.152 493.106 371.62 493.307C373.156 493.507 374.791 493.64 376.527 493.707C378.329 493.841 380.165 493.941 382.035 494.007C383.97 494.074 385.84 494.108 387.642 494.108C389.712 494.108 391.848 494.041 394.051 493.907C396.254 493.774 398.457 493.574 400.66 493.307C402.863 493.039 404.966 492.739 406.968 492.405C409.038 492.072 410.941 491.704 412.676 491.304C414.946 490.77 416.815 490.87 418.284 491.604C419.752 492.272 420.72 493.473 421.188 495.209C421.655 496.811 421.455 498.28 420.587 499.615C419.719 501.017 418.417 502.018 416.682 502.619C414.679 503.354 412.342 503.921 409.672 504.322C407.002 504.789 404.198 505.156 401.261 505.423C398.39 505.69 395.52 505.857 392.649 505.924C389.845 506.057 387.275 506.124 384.938 506.124C382.669 506.124 380.265 506.091 377.729 506.024C375.192 505.957 372.688 505.79 370.218 505.523C367.815 505.323 365.545 505.022 363.409 504.622C361.273 504.288 359.437 503.821 357.902 503.22C356.433 502.619 354.898 501.518 353.295 499.916C351.693 498.38 350.659 496.511 350.191 494.308C349.657 491.971 349.49 489.835 349.691 487.899C349.891 485.896 350.091 484.361 350.291 483.293C350.625 481.29 351.393 479.822 352.594 478.887C353.796 477.886 354.931 477.385 355.999 477.385H403.364V475.282C403.297 474.548 402.596 474.181 401.261 474.181H356.199C355.198 474.181 354.097 473.713 352.895 472.779C351.76 471.777 351.193 470.208 351.193 468.072C351.193 466.337 351.693 464.935 352.695 463.866C353.763 462.732 354.864 462.164 355.999 462.164H411.775C412.509 462.164 413.277 462.364 414.078 462.765C414.879 463.099 415.647 463.633 416.381 464.367C417.116 465.101 417.75 466.036 418.284 467.171C418.885 468.239 419.285 469.541 419.485 471.076C419.819 473.413 419.919 475.616 419.786 477.685C419.652 479.755 419.419 481.657 419.085 483.393C418.551 485.73 417.583 487.332 416.181 488.2C414.779 489.001 413.31 489.401 411.775 489.401H366.013V491.204Z" fill="#0F3D24"/>
<circle cx="56.5" cy="56.5" r="56.5" transform="matrix(-1 0 0 1 113 0)" fill="#BDE6D0"/>
<path d="M56.9092 117.212C56.9092 84.0751 83.7721 57.2122 116.909 57.2122H268.543C287.678 57.2122 303.191 72.7246 303.191 91.8601C303.191 110.996 287.678 126.508 268.543 126.508H56.9092V117.212Z" fill="#2BAF66"/>
<path d="M129.951 57.2122L129.951 204.232L56.9095 204.232L56.9095 87.2121C56.9095 70.6436 70.3409 57.2122 86.9095 57.2122L129.951 57.2122Z" fill="#2BAF66"/>
<path d="M56.9092 197.709C56.9092 175.485 78.8216 158.996 100.724 162.76C121.767 166.377 149.141 169.584 180.05 169.584C211.706 169.584 238.58 166.58 259.068 163.108C280.94 159.402 303.191 175.936 303.191 198.121C303.191 212.315 293.867 224.743 279.947 227.519C258.506 231.795 223.466 237.007 180.05 237.007C136.9 237.007 102.024 231.858 80.549 227.597C66.3862 224.787 56.9092 212.148 56.9092 197.709Z" fill="#2BAF66"/>
<rect width="246.282" height="69.296" rx="34.648" transform="matrix(-1 0 0 1 576.333 92.1357)" fill="#2BAF66"/>
<rect x="330.051" y="180.16" width="246.282" height="69.296" rx="34.648" fill="#2BAF66"/>
<rect width="157.321" height="69.296" rx="34.648" transform="matrix(4.37114e-08 1 1 -4.37114e-08 507.037 92.1357)" fill="#2BAF66"/>
<path d="M364.7 180.16C383.835 180.16 399.348 195.673 399.348 214.808L399.348 314.07L330.052 314.07L330.052 214.808C330.052 195.673 345.564 180.16 364.7 180.16Z" fill="#2BAF66"/>
<path d="M330.051 313.165C330.051 290.941 351.964 274.452 373.866 278.217C394.909 281.833 422.283 285.041 453.192 285.041C484.848 285.041 511.722 282.037 532.21 278.565C554.082 274.859 576.333 291.393 576.333 313.577C576.333 327.771 567.009 340.199 553.089 342.975C531.648 347.251 496.608 352.464 453.192 352.464C410.042 352.464 375.166 347.315 353.691 343.054C339.528 340.244 330.051 327.604 330.051 313.165Z" fill="#2BAF66"/>
<path d="M48.4814 280.435C48.4814 264.104 63.9503 251.821 80.0671 254.461C103.795 258.347 139.221 262.606 180.536 262.606C222.919 262.606 257.31 258.604 280.359 254.818C296.685 252.137 312.59 264.584 312.59 281.128V287.735C312.59 299.285 304.686 309.255 293.3 311.193C271.105 314.97 231.122 320.229 180.536 320.229C129.949 320.229 89.9662 314.97 67.7717 311.193C56.3852 309.255 48.4814 299.285 48.4814 287.735V280.435Z" fill="#2BAF66"/>
</svg>
