<svg width="577" height="353" viewBox="0 0 577 353" fill="none" xmlns="http://www.w3.org/2000/svg">
<circle cx="56.5" cy="56.5" r="56.5" transform="matrix(-1 0 0 1 113 0)" fill="#BDE6D0"/>
<path d="M56.9092 117.212C56.9092 84.0751 83.7721 57.2122 116.909 57.2122H268.543C287.678 57.2122 303.191 72.7246 303.191 91.8601C303.191 110.996 287.678 126.508 268.543 126.508H56.9092V117.212Z" fill="#2BAF66"/>
<path d="M129.951 57.2122L129.951 204.232L56.9095 204.232L56.9095 87.2121C56.9095 70.6436 70.3409 57.2122 86.9095 57.2122L129.951 57.2122Z" fill="#2BAF66"/>
<path d="M56.9092 197.709C56.9092 175.485 78.8216 158.996 100.724 162.76C121.767 166.377 149.141 169.584 180.05 169.584C211.706 169.584 238.58 166.58 259.068 163.108C280.94 159.402 303.191 175.936 303.191 198.121C303.191 212.315 293.867 224.743 279.947 227.519C258.506 231.795 223.466 237.007 180.05 237.007C136.9 237.007 102.024 231.858 80.549 227.597C66.3862 224.787 56.9092 212.148 56.9092 197.709Z" fill="#2BAF66"/>
<rect width="246.282" height="69.296" rx="34.648" transform="matrix(-1 0 0 1 576.333 92.1357)" fill="#2BAF66"/>
<rect x="330.051" y="180.16" width="246.282" height="69.296" rx="34.648" fill="#2BAF66"/>
<rect width="157.321" height="69.296" rx="34.648" transform="matrix(4.37114e-08 1 1 -4.37114e-08 507.037 92.1357)" fill="#2BAF66"/>
<path d="M364.7 180.16C383.835 180.16 399.348 195.673 399.348 214.808L399.348 314.07L330.052 314.07L330.052 214.808C330.052 195.673 345.564 180.16 364.7 180.16Z" fill="#2BAF66"/>
<path d="M330.051 313.165C330.051 290.941 351.964 274.452 373.866 278.217C394.909 281.833 422.283 285.041 453.192 285.041C484.848 285.041 511.722 282.037 532.21 278.565C554.082 274.859 576.333 291.393 576.333 313.577C576.333 327.771 567.009 340.199 553.089 342.975C531.648 347.251 496.608 352.464 453.192 352.464C410.042 352.464 375.166 347.315 353.691 343.054C339.528 340.244 330.051 327.604 330.051 313.165Z" fill="#2BAF66"/>
<path d="M48.4814 280.435C48.4814 264.104 63.9503 251.821 80.0671 254.461C103.795 258.347 139.221 262.606 180.536 262.606C222.919 262.606 257.31 258.604 280.359 254.818C296.685 252.137 312.59 264.584 312.59 281.128V287.735C312.59 299.285 304.686 309.255 293.3 311.193C271.105 314.97 231.122 320.229 180.536 320.229C129.949 320.229 89.9662 314.97 67.7717 311.193C56.3852 309.255 48.4814 299.285 48.4814 287.735V280.435Z" fill="#2BAF66"/>
</svg>
